<svg width="45" height="45" viewBox="0 0 45 45" fill="none" xmlns="http://www.w3.org/2000/svg">
<circle cx="22.5" cy="22.5" r="22" stroke="#FFF4B8"/>
<path d="M23 20H27.5L27 22H23V31H21V22H17V20H21V18.128C21 16.345 21.186 15.698 21.534 15.046C21.8753 14.402 22.402 13.8753 23.046 13.534C23.698 13.186 24.345 13 26.128 13C26.6507 13 27.108 13.05 27.5 13.15V15H26.128C24.804 15 24.401 15.078 23.989 15.298C23.6933 15.4525 23.4521 15.694 23.298 15.99C23.078 16.401 23 16.804 23 18.128V20Z" fill="#FFF4B8"/>
</svg>
