<svg width="45" height="45" viewBox="0 0 45 45" fill="none" xmlns="http://www.w3.org/2000/svg">
<circle cx="22.5" cy="22.5" r="22" stroke="#FFF4B8"/>
<path d="M14 22C14 18.229 14 16.343 15.172 15.172C16.344 14.001 18.229 14 22 14H24C27.771 14 29.657 14 30.828 15.172C31.999 16.344 32 18.229 32 22V24C32 27.771 32 29.657 30.828 30.828C29.656 31.999 27.771 32 24 32H22C18.229 32 16.343 32 15.172 30.828C14.001 29.656 14 27.771 14 24V22Z" stroke="#FFF4B8" stroke-width="2"/>
<path d="M27.5 20C28.3284 20 29 19.3284 29 18.5C29 17.6716 28.3284 17 27.5 17C26.6716 17 26 17.6716 26 18.5C26 19.3284 26.6716 20 27.5 20Z" fill="#FFF4B8"/>
<path d="M23 26C24.6569 26 26 24.6569 26 23C26 21.3431 24.6569 20 23 20C21.3431 20 20 21.3431 20 23C20 24.6569 21.3431 26 23 26Z" stroke="#FFF4B8" stroke-width="2"/>
</svg>
