<svg width="45" height="45" viewBox="0 0 45 45" fill="none" xmlns="http://www.w3.org/2000/svg">
<circle cx="22.5" cy="22.5" r="22" stroke="#FFF4B8"/>
<path d="M34 14.0101C34 14.0101 31.982 15.2021 30.86 15.5401C30.2577 14.8476 29.4573 14.3567 28.567 14.134C27.6767 13.9112 26.7395 13.9673 25.8821 14.2945C25.0247 14.6218 24.2884 15.2045 23.773 15.9638C23.2575 16.7231 22.9877 17.6224 23 18.5401V19.5401C21.2426 19.5856 19.5013 19.1959 17.931 18.4055C16.3607 17.6151 15.0103 16.4487 14 15.0101C14 15.0101 10 24.0101 19 28.0101C16.9405 29.408 14.4872 30.109 12 30.0101C21 35.0101 32 30.0101 32 18.5101C31.9993 18.2314 31.9727 17.9547 31.92 17.6801C32.94 16.6741 34 14.0101 34 14.0101Z" stroke="#FFF4B8" stroke-width="1.5" stroke-linecap="round" stroke-linejoin="round"/>
</svg>
