<svg width="45" height="45" viewBox="0 0 45 45" fill="none" xmlns="http://www.w3.org/2000/svg">
<circle cx="22.5" cy="22.5" r="22" stroke="#FFF4B8"/>
<path d="M33.54 17.42C33.4151 16.9523 33.1698 16.5255 32.8285 16.1821C32.4872 15.8387 32.0619 15.5908 31.595 15.463C29.88 15 23 15 23 15C23 15 16.12 15 14.405 15.463C13.9381 15.5908 13.5128 15.8387 13.1715 16.1821C12.8302 16.5255 12.5849 16.9523 12.46 17.42C12 19.148 12 22.75 12 22.75C12 22.75 12 26.352 12.46 28.08C12.5848 28.5479 12.83 28.9749 13.1713 29.3185C13.5126 29.662 13.9379 29.9101 14.405 30.038C16.121 30.5 23 30.5 23 30.5C23 30.5 29.88 30.5 31.595 30.038C32.0621 29.9101 32.4874 29.662 32.8287 29.3185C33.17 28.9749 33.4152 28.5479 33.54 28.08C34 26.354 34 22.75 34 22.75C34 22.75 34 19.148 33.54 17.42ZM20.75 26.021V19.48L26.5 22.751L20.75 26.021Z" stroke="#FFF4B8" stroke-width="1.5" stroke-miterlimit="10" stroke-linejoin="round"/>
</svg>
